<?xml version="1.0" standalone="no"?>
<!DOCTYPE svg PUBLIC "-//W3C//DTD SVG 20010904//EN"
 "http://www.w3.org/TR/2001/REC-SVG-20010904/DTD/svg10.dtd">
<svg version="1.0" xmlns="http://www.w3.org/2000/svg"
 width="640.000000pt" height="640.000000pt" viewBox="0 0 640.000000 640.000000"
 preserveAspectRatio="xMidYMid meet">

<g transform="translate(0.000000,640.000000) scale(0.100000,-0.100000)"
fill="#000000" stroke="none">
<path d="M2915 6119 c-499 -51 -988 -234 -1392 -522 -669 -475 -1099 -1173
-1217 -1977 -79 -539 -5 -1093 214 -1596 314 -724 924 -1302 1665 -1577 341
-127 643 -180 1020 -180 237 0 371 12 575 53 902 182 1678 791 2072 1627 150
319 235 634 269 997 15 158 7 498 -15 646 -162 1106 -890 2001 -1933 2376
-167 60 -359 106 -578 140 -120 18 -549 27 -680 13z m690 -219 c830 -126 1545
-615 1965 -1344 178 -310 287 -636 342 -1026 8 -58 13 -188 13 -335 0 -279
-16 -412 -75 -655 -125 -509 -377 -944 -761 -1315 -209 -202 -423 -352 -684
-480 -172 -84 -289 -130 -460 -178 -107 -30 -173 -44 -365 -77 -30 -6 -127
-14 -215 -19 -607 -37 -1200 127 -1700 468 -646 441 -1080 1159 -1170 1936
-19 171 -19 471 1 649 18 159 75 411 127 561 107 308 249 567 454 825 63 80
274 299 353 366 427 364 950 585 1520 644 145 15 497 4 655 -20z"/>
<path d="M4061 5643 c-12 -42 -8 -48 36 -56 37 -7 58 21 23 30 -11 3 -20 12
-20 20 0 10 6 12 20 8 24 -8 28 20 4 29 -37 14 -53 6 -63 -31z"/>
<path d="M2471 5639 c-17 -7 -22 -15 -18 -32 3 -12 15 -80 27 -151 21 -131 19
-145 -16 -146 -6 0 -22 64 -37 146 -15 81 -29 149 -31 151 -3 3 -21 0 -41 -7
-31 -10 -36 -16 -31 -35 3 -12 17 -80 32 -150 21 -104 23 -129 12 -136 -27
-18 -34 -7 -52 80 -10 49 -20 92 -23 95 -3 2 -20 -3 -39 -12 -22 -10 -33 -21
-30 -31 18 -63 56 -237 56 -257 0 -16 -8 -28 -24 -36 -21 -9 -24 -16 -19 -42
8 -42 9 -43 47 -22 39 21 66 63 66 104 0 29 3 31 83 57 139 46 149 68 123 258
-27 195 -24 190 -85 166z"/>
<path d="M3180 5525 c0 -102 -1 -105 -22 -105 -22 0 -23 3 -23 92 l0 93 -35 0
-35 0 -3 -96 c-3 -91 -4 -97 -22 -92 -16 4 -20 14 -20 52 0 85 -10 121 -34
121 -44 0 -48 -10 -44 -132 3 -130 -3 -148 -58 -148 -42 0 -49 14 -58 109 -4
41 -8 76 -10 78 -2 2 -19 0 -37 -4 -33 -9 -33 -10 -30 -59 9 -152 42 -204 129
-204 58 0 110 29 125 70 15 40 45 45 226 36 216 -9 435 -47 620 -108 46 -15
65 -17 71 -9 13 22 52 263 44 271 -5 5 -21 12 -36 15 -28 7 -30 3 -56 -144 -8
-46 -18 -57 -40 -43 -10 7 -9 25 4 92 8 45 11 87 7 91 -5 5 -23 12 -41 15 -24
5 -32 3 -32 -7 -1 -35 -21 -154 -28 -160 -4 -4 -14 -4 -23 0 -13 5 -14 16 -3
86 6 44 8 83 5 87 -3 3 -20 8 -37 11 l-32 5 -10 -80 c-5 -44 -12 -81 -14 -83
-2 -2 -47 4 -101 13 l-98 17 3 100 3 100 -36 3 -37 3 -4 -95 c-2 -52 -7 -98
-10 -102 -4 -3 -27 -3 -52 0 l-46 7 7 105 6 104 -41 0 -42 0 0 -105z"/>
<path d="M4050 5564 c0 -3 -15 -76 -34 -162 -51 -232 -49 -222 -36 -222 6 0
77 -30 156 -66 l145 -67 27 20 c21 15 37 50 74 159 26 76 47 144 47 149 1 15
-59 49 -69 39 -4 -5 -25 -65 -45 -134 -20 -69 -41 -129 -45 -134 -11 -11 -70
12 -70 28 0 6 11 50 24 98 l24 88 -31 15 c-16 8 -33 15 -37 15 -4 0 -18 -40
-30 -90 -23 -95 -34 -105 -74 -75 -19 14 -19 17 13 149 18 74 31 142 29 151
-3 15 -68 52 -68 39z"/>
<path d="M4150 5505 c-20 -24 3 -67 33 -63 29 4 36 47 11 65 -23 17 -29 16
-44 -2z"/>
<path d="M4230 5447 c0 -42 50 -66 64 -31 9 24 -12 54 -39 54 -19 0 -25 -5
-25 -23z"/>
<path d="M1861 5371 l-24 -18 57 -177 c32 -97 60 -176 62 -176 11 0 163 86
181 103 36 32 39 80 13 182 -12 50 -26 94 -31 99 -8 9 -69 -11 -69 -23 0 -3
11 -48 25 -99 14 -51 23 -97 20 -102 -10 -16 -86 -52 -93 -45 -4 3 -25 65 -48
138 -25 82 -46 133 -55 134 -8 2 -25 -6 -38 -16z"/>
<path d="M4485 5340 c-7 -11 -115 -339 -115 -349 0 -4 14 -15 30 -24 l30 -18
11 28 c39 102 119 326 117 328 -2 1 -17 11 -35 23 -19 14 -34 18 -38 12z"/>
<path d="M3300 5285 c-10 -12 -10 -21 -1 -41 13 -28 38 -29 55 -1 22 35 -27
74 -54 42z"/>
<path d="M3383 5283 c-18 -7 -16 -48 3 -64 31 -26 70 25 44 56 -13 15 -25 17
-47 8z"/>
<path d="M1561 5176 c-33 -35 -22 -79 17 -74 34 4 58 48 42 78 -14 27 -32 25
-59 -4z"/>
<path d="M1715 5163 c-16 -9 -57 -37 -90 -62 -32 -25 -66 -51 -74 -57 -13 -10
-10 -24 23 -102 21 -50 36 -98 33 -107 -12 -29 -33 -15 -56 40 -13 30 -27 55
-30 55 -3 0 -19 -11 -36 -24 l-30 -24 30 -62 30 -62 -33 -29 c-18 -16 -36 -29
-40 -29 -5 0 -24 32 -42 71 -19 39 -39 73 -43 76 -5 3 -22 -7 -38 -23 l-29
-27 45 -83 45 -82 -27 -31 c-15 -17 -33 -31 -39 -31 -6 0 -42 54 -79 120 l-68
121 -29 -28 c-15 -15 -28 -33 -28 -40 0 -12 149 -271 170 -296 4 -4 40 27 81
69 94 97 279 260 391 344 95 71 118 105 118 175 0 55 -12 86 -45 119 -30 30
-66 33 -110 9z m52 -71 c14 -9 33 -56 33 -83 0 -22 -40 -63 -90 -92 l-30 -18
-19 43 c-36 84 -36 82 21 121 54 38 65 42 85 29z"/>
<path d="M2128 5035 c-8 -19 -15 -22 -28 -15 -11 6 -21 5 -28 -2 -14 -14 -16
-54 -3 -62 14 -9 40 4 46 23 4 13 13 17 29 14 27 -6 50 24 40 51 -9 24 -43 19
-56 -9z"/>
<path d="M4712 5031 c-10 -28 -8 -32 26 -57 106 -78 123 -115 82 -182 l-20
-33 -39 30 c-20 16 -60 48 -87 70 l-49 41 -17 -33 c-43 -82 -29 -149 45 -212
42 -36 53 -36 66 -1 7 17 1 30 -31 64 -49 54 -40 73 14 30 151 -119 409 -402
544 -594 35 -50 70 -97 79 -104 8 -7 15 -22 15 -34 1 -37 35 -100 74 -134 50
-44 88 -43 132 3 56 60 58 151 3 236 -50 79 -120 97 -170 43 -12 -13 -27 -24
-32 -24 -10 0 -46 41 -47 53 0 4 23 37 50 72 28 35 50 68 50 72 0 11 -44 73
-52 73 -4 0 -28 -29 -53 -65 -26 -36 -50 -65 -55 -65 -4 0 -16 12 -25 27 -17
26 -17 28 13 82 41 76 46 108 26 167 -29 88 -87 144 -150 144 -23 0 -26 -3
-22 -25 5 -22 2 -25 -26 -25 -37 0 -49 -7 -65 -39 l-13 -23 -58 57 -58 57 24
42 c29 50 31 126 6 173 -18 34 -139 143 -159 143 -6 0 -16 -13 -21 -29z m462
-443 c23 -32 20 -92 -6 -133 -23 -34 -48 -47 -48 -22 0 6 7 21 15 31 19 26 19
79 0 116 -15 28 -14 30 4 30 11 0 27 -10 35 -22z m-89 -57 c-9 -30 -45 -28
-45 2 0 13 5 28 12 35 18 18 42 -9 33 -37z m425 -450 c26 -50 -7 -131 -55
-131 -30 0 -49 25 -49 66 0 63 78 112 104 65z"/>
<path d="M3020 5020 c-237 -23 -477 -98 -690 -216 -170 -93 -264 -164 -414
-312 -255 -252 -425 -566 -503 -930 -25 -118 -27 -144 -27 -362 0 -218 2 -244
27 -362 43 -202 121 -404 221 -572 141 -237 376 -478 601 -615 216 -132 426
-212 675 -257 134 -25 460 -25 585 0 290 56 488 134 705 276 124 81 175 123
291 239 116 116 158 167 239 291 226 345 326 743 291 1161 -37 429 -220 820
-530 1130 -116 115 -167 157 -291 239 -216 141 -438 228 -705 276 -99 18 -361
26 -475 14z m445 -69 c500 -74 942 -358 1218 -782 371 -568 383 -1319 31
-1890 -86 -138 -140 -207 -263 -330 -120 -119 -226 -204 -333 -266 -299 -173
-588 -253 -913 -253 -297 0 -588 73 -845 212 -81 44 -227 141 -275 184 -16 14
-52 45 -78 67 -70 60 -203 216 -270 315 -199 298 -301 633 -301 992 0 359 102
694 301 992 67 99 200 255 270 315 26 22 62 53 78 68 63 55 243 169 349 220
323 154 677 208 1031 156z"/>
<path d="M2266 4415 c-11 -8 -39 -15 -63 -15 -48 0 -77 -23 -87 -71 -9 -44 17
-98 47 -99 5 0 5 5 2 10 -8 12 0 13 149 11 84 -1 122 -5 128 -13 14 -24 50 25
52 70 1 61 -32 92 -99 92 -28 0 -55 -4 -60 -9 -16 -14 -56 6 -49 24 7 18 4 18
-20 0z"/>
<path d="M4156 4415 c-3 -8 -13 -15 -23 -15 -15 0 -16 -2 -3 -10 23 -15 37
-12 43 10 6 24 -8 37 -17 15z"/>
<path d="M2873 4413 c-12 -2 -27 -11 -33 -19 -7 -8 -18 -14 -26 -14 -7 0 -25
-16 -40 -35 -20 -27 -25 -41 -19 -62 12 -50 46 -75 37 -28 -6 36 15 40 116 21
48 -9 102 -18 120 -20 19 -2 37 -8 41 -15 11 -17 38 -3 45 24 16 62 -19 113
-80 117 -16 1 -34 9 -40 16 -9 12 -14 12 -31 2 -22 -14 -58 -6 -48 10 6 10 -2
11 -42 3z"/>
<path d="M3473 4406 c-69 -12 -89 -26 -98 -71 -5 -27 -4 -28 7 -11 36 54 47
59 107 51 31 -4 76 -8 100 -9 29 -1 46 -7 49 -16 3 -8 10 -18 16 -22 8 -5 7
-8 -2 -8 -22 0 5 -37 32 -44 19 -5 23 -11 19 -27 -8 -30 18 -21 34 12 18 34
16 69 -6 105 -17 28 -26 32 -73 36 -37 3 -58 0 -70 -10 -21 -17 -52 -8 -44 13
3 8 2 14 -2 14 -4 -1 -35 -7 -69 -13z"/>
<path d="M4220 4390 c0 -6 18 -7 45 -3 36 5 50 2 66 -13 33 -30 41 -61 24 -94
-17 -34 -18 -40 -6 -40 16 0 33 58 26 90 -11 50 -41 70 -102 70 -29 0 -53 -4
-53 -10z"/>
<path d="M4030 4375 c-7 -9 -11 -17 -9 -20 3 -2 10 5 17 15 14 24 10 26 -8 5z"/>
<path d="M2149 4183 c-32 -37 -39 -86 -16 -117 12 -16 29 -18 160 -17 127 2
147 0 147 -14 0 -25 19 -17 40 18 27 42 19 91 -23 135 -28 29 -36 32 -77 28
-31 -2 -46 -8 -48 -20 -4 -21 -31 -21 -47 1 -9 12 -28 18 -60 18 -40 1 -50 -3
-76 -32z"/>
<path d="M3007 4213 c-21 -2 -41 -11 -44 -19 -7 -19 -39 -18 -47 1 -4 11 -20
15 -57 15 -46 0 -56 -4 -81 -32 -34 -39 -39 -105 -10 -131 24 -22 31 -21 25 3
-9 33 36 46 89 25 24 -9 76 -19 116 -22 51 -4 72 -10 72 -19 0 -20 14 -17 36
7 13 14 19 36 19 64 0 36 -6 50 -34 79 -19 20 -37 35 -40 34 -4 -1 -23 -3 -44
-5z"/>
<path d="M3417 4186 c-31 -29 -50 -91 -36 -117 5 -11 11 -19 12 -19 1 0 2 22
2 50 0 37 5 53 20 64 24 18 78 20 107 5 11 -6 37 -11 57 -11 43 0 71 -22 71
-56 0 -19 4 -23 20 -19 11 3 18 1 14 -4 -3 -5 0 -9 5 -9 6 0 11 -9 11 -20 0
-26 15 -25 34 2 26 36 20 83 -15 123 -28 31 -37 35 -80 35 -36 0 -49 -4 -49
-14 0 -26 -23 -30 -41 -8 -25 32 -97 31 -132 -2z"/>
<path d="M4142 4203 c-17 -7 -5 -23 18 -23 13 0 17 5 14 15 -6 16 -11 17 -32
8z"/>
<path d="M4226 4195 c-5 -15 -1 -16 33 -10 74 12 124 -46 96 -112 -20 -47 -18
-53 5 -24 22 25 25 56 10 95 -12 32 -44 52 -96 61 -33 5 -43 3 -48 -10z"/>
<path d="M2158 3964 c-35 -56 -37 -108 -7 -125 12 -6 19 -7 16 -2 -3 4 57 8
134 8 104 0 139 -3 139 -12 0 -31 42 3 55 45 10 33 -11 85 -45 110 -36 27
-120 32 -120 7 0 -8 -9 -15 -19 -15 -10 0 -21 7 -25 15 -4 11 -20 15 -53 15
-46 -1 -49 -2 -75 -46z"/>
<path d="M2782 3977 c-25 -26 -32 -42 -32 -73 0 -38 22 -84 40 -84 4 0 6 8 3
18 -7 28 21 46 60 38 106 -22 200 -35 209 -30 6 4 8 -1 4 -14 -12 -36 31 -14
49 25 14 30 15 42 6 74 -22 72 -115 105 -163 57 l-22 -22 -14 22 c-11 17 -24
22 -61 22 -40 0 -52 -5 -79 -33z"/>
<path d="M3475 4000 c-72 -9 -111 -54 -99 -115 10 -53 19 -49 19 8 0 50 1 53
37 70 36 18 41 18 88 2 30 -10 62 -14 80 -10 23 5 30 3 30 -9 0 -9 4 -16 9
-16 5 0 11 -13 14 -29 4 -17 14 -30 26 -34 13 -3 21 -13 21 -26 0 -12 4 -21 9
-21 19 0 41 45 41 83 0 54 -56 107 -113 107 -30 0 -40 -4 -44 -20 -5 -20 -43
-29 -43 -10 0 17 -34 26 -75 20z"/>
<path d="M4132 3988 c5 -15 37 -18 41 -3 1 6 -9 12 -22 13 -16 3 -22 -1 -19
-10z"/>
<path d="M4225 3989 c-11 -17 0 -20 34 -8 28 10 37 9 59 -8 44 -32 53 -59 36
-107 -14 -39 -14 -40 3 -23 12 12 18 33 18 63 0 39 -5 50 -30 70 -32 25 -108
34 -120 13z"/>
<path d="M2158 3770 c-27 -27 -38 -46 -38 -68 0 -44 20 -82 42 -82 11 0 16 5
13 10 -4 7 35 10 118 9 68 -1 130 2 137 6 10 6 12 4 7 -8 -10 -27 18 -20 37 8
27 41 21 89 -16 130 -29 31 -39 35 -80 35 -41 0 -48 -3 -48 -20 0 -13 -7 -20
-19 -20 -11 0 -23 9 -26 20 -5 16 -15 20 -48 19 -35 -1 -48 -7 -79 -39z"/>
<path d="M2967 3790 c-6 -24 -42 -27 -51 -5 -4 11 -20 15 -57 15 -45 0 -56 -4
-80 -30 -37 -39 -41 -106 -8 -136 22 -19 22 -19 16 7 -6 25 -4 28 36 30 6 0
41 -5 77 -11 36 -6 89 -13 118 -17 39 -4 52 -10 48 -19 -8 -21 19 -16 40 7 13
14 19 36 19 64 0 36 -6 50 -34 79 -29 30 -42 36 -77 36 -33 0 -43 -4 -47 -20z"/>
<path d="M3406 3769 c-18 -22 -26 -41 -25 -67 1 -20 3 -28 6 -17 2 11 6 30 8
41 9 43 101 55 156 21 15 -9 23 -9 38 0 15 10 22 8 39 -10 11 -12 22 -33 24
-47 2 -17 10 -26 26 -28 14 -2 22 -10 22 -23 0 -25 15 -24 34 3 29 41 17 102
-28 140 -27 22 -116 25 -116 4 0 -26 -23 -30 -41 -8 -13 17 -28 22 -67 22 -44
0 -54 -4 -76 -31z"/>
<path d="M4135 3791 c-6 -11 29 -34 38 -25 3 3 3 12 0 20 -6 16 -29 19 -38 5z"/>
<path d="M4227 3793 c-17 -17 -4 -24 32 -18 74 12 128 -52 96 -115 -13 -24
-13 -31 -3 -28 20 7 32 68 19 100 -6 16 -25 37 -43 48 -32 19 -88 27 -101 13z"/>
<path d="M4040 3769 c-17 -13 -18 -17 -5 -10 33 17 51 31 40 31 -5 0 -21 -10
-35 -21z"/>
<path d="M2270 3590 c0 -5 5 -10 10 -10 6 0 10 5 10 10 0 6 -4 10 -10 10 -5 0
-10 -4 -10 -10z"/>
<path d="M2900 3580 c0 -5 5 -10 10 -10 6 0 10 5 10 10 0 6 -4 10 -10 10 -5 0
-10 -4 -10 -10z"/>
<path d="M4168 3437 c4 -132 2 -155 -12 -169 -14 -15 -44 -16 -275 -11 -202 5
-266 3 -291 -7 -27 -11 -33 -11 -40 0 -5 8 -6 18 -3 23 3 5 -6 2 -19 -7 -22
-15 -58 -16 -284 -13 -143 2 -270 0 -283 -5 -17 -6 -29 -4 -41 7 -9 8 -20 12
-24 8 -4 -5 -56 -8 -114 -9 -59 0 -191 -2 -294 -4 -128 -2 -192 1 -201 9 -8 6
-17 8 -21 4 -3 -4 -49 -6 -101 -4 -117 3 -185 -6 -185 -25 0 -11 31 -14 163
-14 89 0 236 -1 327 -2 91 -1 370 0 620 0 669 3 1140 -2 1140 -11 0 -5 5 -5
10 -2 16 10 195 14 210 5 7 -4 10 -15 7 -24 -5 -13 -18 -16 -64 -12 -32 2 -66
8 -75 11 -10 4 -18 3 -18 -1 0 -5 -98 -8 -217 -8 -122 1 -227 -3 -239 -8 -12
-6 -35 -6 -55 -1 -19 4 -77 6 -129 3 -175 -10 -54 -22 230 -23 218 -2 272 -5
279 -16 7 -11 10 -10 15 5 5 18 16 19 146 16 130 -3 140 -2 141 15 1 10 3 30
5 45 4 37 -14 41 -171 37 -79 -3 -125 0 -126 6 0 6 0 83 1 173 1 90 -3 162 -8
162 -5 0 -7 -66 -4 -153z"/>
<path d="M2270 3550 c0 -5 5 -10 10 -10 6 0 10 5 10 10 0 6 -4 10 -10 10 -5 0
-10 -4 -10 -10z"/>
<path d="M2912 3530 c0 -14 2 -19 5 -12 2 6 2 18 0 25 -3 6 -5 1 -5 -13z"/>
<path d="M3543 3485 c0 -27 2 -38 4 -22 2 15 2 37 0 50 -2 12 -4 0 -4 -28z"/>
<path d="M2911 3474 c0 -11 3 -14 6 -6 3 7 2 16 -1 19 -3 4 -6 -2 -5 -13z"/>
<path d="M2278 3398 c0 -24 -2 -56 -2 -71 -1 -16 2 -31 6 -33 4 -3 8 29 8 70
0 80 -9 106 -12 34z"/>
<path d="M2913 3400 c0 -25 2 -35 4 -22 2 12 2 32 0 45 -2 12 -4 2 -4 -23z"/>
<path d="M3541 3344 c0 -11 3 -14 6 -6 3 7 2 16 -1 19 -3 4 -6 -2 -5 -13z"/>
<path d="M2911 3304 c0 -11 3 -14 6 -6 3 7 2 16 -1 19 -3 4 -6 -2 -5 -13z"/>
<path d="M2428 3172 c-54 -1 -98 -7 -98 -12 0 -6 78 -10 203 -9 123 1 186 4
162 9 -59 11 -157 16 -267 12z"/>
<path d="M2190 3159 l-55 -6 62 -1 c41 -1 67 -7 77 -18 14 -14 16 -14 16 0 0
8 7 19 15 23 17 10 -33 11 -115 2z"/>
<path d="M2983 3158 c-5 -10 69 -12 323 -8 132 1 208 -1 221 -9 17 -8 22 -7
27 4 3 8 0 16 -7 16 -51 6 -560 2 -564 -3z"/>
<path d="M2845 3153 c27 -3 55 -9 62 -15 10 -8 13 -6 13 6 0 13 -11 16 -62 14
-61 -2 -61 -2 -13 -5z"/>
<path d="M4181 3105 c-7 -24 -5 -83 2 -76 5 5 7 26 4 47 -2 22 -5 35 -6 29z"/>
<path d="M2923 3065 c0 -22 2 -30 4 -17 2 12 2 30 0 40 -3 9 -5 -1 -4 -23z"/>
<path d="M3552 3070 c0 -19 2 -27 5 -17 2 9 2 25 0 35 -3 9 -5 1 -5 -18z"/>
<path d="M2290 3062 c0 -11 -4 -24 -10 -27 -13 -8 -13 -25 -1 -25 11 0 26 59
17 67 -3 4 -6 -3 -6 -15z"/>
<path d="M3066 2985 c4 -9 1 -15 -7 -15 -8 0 -59 -7 -113 -15 -144 -22 -156
-21 -156 12 0 25 0 26 -20 8 -15 -13 -20 -31 -20 -65 0 -39 5 -51 33 -77 26
-24 41 -31 79 -32 39 -1 48 2 53 19 8 26 41 26 48 0 4 -16 14 -20 49 -20 83 0
140 88 104 158 -8 16 -23 32 -31 36 -23 9 -25 8 -19 -9z"/>
<path d="M2137 2972 c-10 -11 -17 -35 -17 -58 0 -34 6 -46 38 -75 32 -29 44
-34 88 -34 43 0 50 3 46 18 -5 21 20 23 38 2 8 -10 26 -13 63 -9 61 5 97 37
97 84 0 57 -38 106 -64 80 -13 -13 -256 -14 -256 0 0 16 -15 12 -33 -8z"/>
<path d="M3698 2977 c12 -14 -2 -47 -14 -35 -14 14 -42 -11 -37 -32 8 -30 -29
-62 -58 -52 -15 6 -33 4 -53 -7 -69 -34 -140 -4 -149 63 -3 26 -4 24 -5 -11
-3 -58 38 -93 108 -93 33 0 50 5 54 15 8 21 44 19 48 -2 3 -14 12 -17 47 -14
72 5 111 44 111 109 0 33 -25 72 -47 72 -11 0 -13 -3 -5 -13z"/>
<path d="M4351 2958 c18 -34 13 -78 -13 -105 -20 -22 -29 -24 -70 -19 -31 4
-48 3 -48 -4 0 -5 22 -10 51 -10 43 0 55 5 80 29 16 16 29 38 29 49 0 28 -21
82 -31 82 -5 0 -4 -10 2 -22z"/>
<path d="M4020 2856 c0 -2 8 -10 18 -17 15 -13 16 -12 3 4 -13 16 -21 21 -21
13z"/>
<path d="M4130 2830 c-11 -7 -7 -10 18 -10 17 0 32 5 32 10 0 13 -30 13 -50 0z"/>
<path d="M2147 2762 c-10 -11 -17 -35 -17 -60 0 -34 6 -46 38 -76 31 -30 44
-36 80 -36 36 0 45 4 49 20 3 11 13 20 23 20 10 0 20 -9 23 -20 4 -16 14 -20
49 -20 35 0 50 6 71 28 35 37 43 81 23 121 -17 31 -36 42 -36 19 0 -8 -3 -8
-9 -2 -6 5 -62 7 -136 4 -98 -4 -124 -2 -120 8 7 18 -20 14 -38 -6z"/>
<path d="M2778 2763 c-11 -12 -18 -36 -18 -62 0 -34 6 -49 29 -72 26 -25 37
-29 85 -29 43 0 56 3 56 15 0 22 38 18 50 -5 18 -33 79 -27 118 11 27 26 32
39 32 76 0 24 -5 53 -10 64 -11 19 -40 27 -40 10 0 -5 -15 -9 -32 -9 -18 0
-55 -6 -83 -12 -135 -31 -162 -30 -167 6 -3 26 -3 26 -20 7z"/>
<path d="M3710 2755 c0 -19 -4 -26 -14 -22 -17 7 -36 -11 -36 -33 0 -25 -36
-53 -60 -47 -12 3 -37 -1 -55 -9 -83 -34 -151 1 -143 73 2 20 0 29 -5 24 -5
-5 -9 -25 -10 -45 -2 -55 36 -88 108 -94 51 -4 57 -3 62 17 7 27 33 27 40 1 8
-30 88 -28 126 4 33 27 45 87 25 125 -19 35 -38 38 -38 6z"/>
<path d="M4365 2740 c20 -38 19 -41 -10 -84 -13 -20 -21 -36 -17 -36 34 1 57
68 41 117 -6 18 -15 33 -20 33 -5 0 -3 -13 6 -30z"/>
<path d="M4235 2622 c3 -7 5 -16 5 -18 0 -2 18 -4 40 -4 53 0 51 13 -5 26 -38
9 -45 8 -40 -4z"/>
<path d="M4141 2621 c-11 -7 -9 -10 8 -16 22 -7 41 0 41 16 0 11 -30 12 -49 0z"/>
<path d="M2776 2558 c-9 -12 -16 -41 -16 -64 0 -34 6 -48 32 -73 27 -26 39
-31 80 -31 34 0 50 5 54 15 4 8 15 15 25 15 11 0 22 -7 25 -15 4 -10 20 -15
46 -15 83 0 136 78 100 149 -19 38 -42 52 -42 26 0 -9 -4 -14 -9 -11 -8 6 -67
-3 -183 -25 -64 -13 -94 -1 -85 33 7 25 -9 23 -27 -4z"/>
<path d="M3710 2564 c0 -8 -9 -23 -20 -32 -11 -10 -28 -32 -38 -51 -16 -30
-21 -34 -69 -37 -29 -1 -61 -8 -72 -14 -26 -13 -71 -3 -93 23 -20 23 -23 68
-7 99 7 13 7 18 1 14 -6 -3 -16 -22 -22 -42 -23 -68 19 -120 101 -124 62 -4
69 -2 69 15 0 22 37 18 43 -5 8 -30 71 -27 113 5 35 27 49 68 39 115 -7 34
-45 63 -45 34z"/>
<path d="M2449 2565 c-3 -2 -72 -6 -153 -8 -155 -3 -165 -6 -166 -51 0 -11 14
-41 31 -68 30 -46 33 -48 78 -48 35 0 51 5 64 20 18 22 37 19 37 -6 0 -10 13
-14 48 -14 40 0 53 5 79 30 17 17 34 41 37 55 11 45 -31 114 -55 90z"/>
<path d="M4365 2533 c18 -45 13 -65 -27 -105 -20 -20 -30 -20 -87 -2 -18 5
-23 4 -19 -7 3 -9 22 -15 49 -17 34 -2 51 3 74 22 26 21 30 30 29 71 -1 30 -7
52 -18 63 -17 16 -17 15 -1 -25z"/>
<path d="M4017 2472 c3 -12 9 -25 14 -28 14 -8 11 10 -6 32 -13 18 -14 18 -8
-4z"/>
<path d="M4153 2423 c-22 -8 -14 -23 12 -23 16 0 25 6 25 15 0 15 -14 18 -37
8z"/>
<path d="M2450 2365 c0 -12 -24 -14 -147 -14 -165 1 -173 -2 -173 -71 0 -40
35 -82 78 -95 34 -10 92 3 92 20 0 20 30 19 45 -1 6 -9 29 -18 51 -19 32 -2
45 3 72 28 27 26 32 38 32 77 0 33 -6 53 -20 68 -24 26 -30 27 -30 7z"/>
<path d="M2782 2357 c-16 -17 -22 -36 -22 -69 0 -39 5 -50 31 -72 24 -20 41
-26 80 -26 35 0 51 4 55 15 8 19 40 20 51 1 4 -7 27 -15 50 -18 37 -5 44 -2
71 26 36 38 43 65 31 111 -10 36 -49 69 -49 41 0 -10 -16 -16 -57 -19 -32 -2
-91 -10 -131 -18 -63 -11 -75 -11 -83 2 -4 8 -6 22 -3 32 7 23 2 22 -24 -6z"/>
<path d="M3714 2354 c4 -10 -3 -18 -24 -26 -20 -6 -30 -17 -30 -30 0 -38 -20
-61 -49 -55 -15 3 -45 0 -67 -8 -59 -21 -92 -18 -121 11 -21 22 -25 32 -20 66
5 37 4 39 -9 19 -22 -30 -8 -86 28 -116 40 -33 112 -35 137 -3 18 22 41 18 41
-8 0 -20 83 -19 114 1 45 30 58 111 25 152 -16 18 -32 17 -25 -3z"/>
<path d="M4356 2349 c20 -25 23 -61 8 -90 -20 -39 -48 -52 -95 -44 -33 6 -38
4 -33 -9 5 -13 16 -16 46 -12 77 9 117 58 101 125 -5 19 -15 37 -23 39 -12 4
-13 2 -4 -9z"/>
<path d="M4045 2220 c3 -5 8 -10 11 -10 2 0 4 5 4 10 0 6 -5 10 -11 10 -5 0
-7 -4 -4 -10z"/>
<path d="M4146 2211 c-7 -11 22 -23 35 -15 5 3 9 9 9 15 0 12 -37 12 -44 0z"/>
<path d="M2147 2152 c-26 -29 -31 -75 -12 -111 18 -36 49 -51 104 -51 20 0 42
-5 49 -12 9 -9 12 -7 12 11 0 20 3 22 28 17 65 -16 82 -17 115 -7 38 13 57 44
57 95 0 39 -35 89 -48 69 -11 -18 -274 -23 -267 -5 7 18 -20 14 -38 -6z"/>
<path d="M2776 2148 c-44 -62 16 -144 117 -161 28 -4 37 -2 37 9 0 17 47 19
53 2 3 -10 7 -10 18 -2 8 6 28 14 44 18 59 14 75 32 75 85 0 50 -23 88 -39 63
-4 -6 -43 -17 -86 -23 -44 -6 -87 -15 -97 -20 -44 -24 -108 0 -94 36 8 23 -11
18 -28 -7z"/>
<path d="M3712 2147 c2 -18 -2 -23 -24 -25 -16 -2 -29 -9 -29 -15 -1 -7 -3
-22 -4 -35 -3 -32 -10 -36 -58 -38 -23 -1 -68 -5 -99 -9 -56 -8 -57 -7 -87 26
-24 26 -31 29 -31 15 0 -9 13 -31 29 -47 24 -23 38 -29 74 -29 25 0 52 -3 61
-6 12 -4 16 0 16 15 0 14 6 21 20 21 11 0 20 -7 20 -15 0 -12 10 -14 48 -11
26 2 53 4 60 5 17 1 52 61 52 88 0 30 -19 71 -37 77 -10 4 -13 -1 -11 -17z"/>
<path d="M4357 2140 c7 -25 23 -37 23 -17 0 8 -6 20 -14 26 -12 10 -13 8 -9
-9z"/>
<path d="M4365 2051 c-10 -31 -42 -44 -92 -37 -33 4 -44 3 -41 -6 5 -15 93
-11 120 5 19 12 34 44 25 54 -3 2 -8 -5 -12 -16z"/>
<path d="M4020 2051 c0 -9 49 -56 53 -50 1 2 -10 16 -25 31 -15 15 -28 23 -28
19z"/>
<path d="M4154 2012 c-8 -5 -4 -13 13 -26 25 -18 25 -18 21 5 -3 25 -17 33
-34 21z"/>
<path d="M4734 4624 c-9 -35 27 -74 50 -54 20 16 20 44 0 64 -23 23 -43 19
-50 -10z"/>
<path d="M1073 4574 l-30 -37 53 -80 53 -79 -46 -62 c-65 -86 -94 -116 -113
-116 -9 0 -31 20 -50 45 -19 25 -36 45 -39 45 -8 0 -51 -67 -51 -79 0 -18 97
-111 116 -111 37 0 82 39 165 145 46 59 90 115 97 125 16 22 16 22 -67 151
l-58 90 -30 -37z"/>
<path d="M1470 4571 c-14 -34 -7 -51 21 -51 22 0 45 41 36 64 -10 27 -43 19
-57 -13z"/>
<path d="M952 4561 c-21 -13 -32 -58 -18 -76 12 -17 14 -16 34 6 35 37 22 94
-16 70z"/>
<path d="M1415 4524 c-19 -20 -19 -63 0 -70 22 -9 45 14 45 46 0 33 -23 45
-45 24z"/>
<path d="M5384 4475 c-10 -24 4 -63 26 -75 27 -14 40 -5 40 29 0 45 -53 81
-66 46z"/>
<path d="M877 4462 c-21 -23 -22 -61 -2 -68 24 -10 45 15 45 52 0 38 -17 45
-43 16z"/>
<path d="M949 3711 c-36 -37 -38 -79 -6 -109 53 -50 137 -7 137 69 0 70 -77
94 -131 40z m99 -3 c31 -31 -4 -108 -50 -108 -52 0 -76 62 -38 100 22 22 69
27 88 8z"/>
<path d="M5334 3663 c-11 -24 -14 -51 -9 -79 6 -41 29 -74 42 -60 3 3 2 6 -4
6 -13 0 -33 53 -33 84 0 34 23 70 50 77 25 7 25 7 -3 8 -23 1 -31 -5 -43 -36z"/>
<path d="M5464 3665 c-17 -41 -18 -62 -3 -104 14 -39 41 -56 69 -41 11 6 20
16 20 22 0 6 -7 4 -18 -5 -53 -48 -94 88 -44 146 10 11 11 17 3 17 -7 0 -19
-16 -27 -35z"/>
<path d="M5511 3630 c-1 -20 -3 -22 -12 -10 -8 12 -9 10 -7 -9 2 -14 9 -26 15
-29 19 -5 27 25 15 51 -11 22 -11 22 -11 -3z"/>
<path d="M5380 3623 c0 -15 -2 -16 -10 -3 -8 13 -10 13 -10 -2 0 -33 11 -49
26 -37 16 13 19 45 4 54 -5 3 -10 -2 -10 -12z"/>
<path d="M5421 3574 c0 -11 3 -14 6 -6 3 7 2 16 -1 19 -3 4 -6 -2 -5 -13z"/>
<path d="M5551 3574 c0 -11 3 -14 6 -6 3 7 2 16 -1 19 -3 4 -6 -2 -5 -13z"/>
<path d="M5400 3535 c-7 -9 -8 -15 -2 -15 5 0 12 7 16 15 3 8 4 15 2 15 -2 0
-9 -7 -16 -15z"/>
<path d="M800 3516 c-105 -19 -149 -51 -135 -98 16 -49 146 -73 360 -65 158 6
232 21 279 58 31 24 33 49 7 73 -44 40 -363 59 -511 32z m357 -17 c91 -10 153
-29 153 -48 0 -39 -108 -68 -280 -76 -212 -11 -357 16 -348 63 10 57 245 87
475 61z"/>
<path d="M1100 3450 c0 -5 5 -10 10 -10 6 0 10 5 10 10 0 6 -4 10 -10 10 -5 0
-10 -4 -10 -10z"/>
<path d="M1180 3450 c0 -5 5 -10 10 -10 6 0 10 5 10 10 0 6 -4 10 -10 10 -5 0
-10 -4 -10 -10z"/>
<path d="M5162 3484 c-19 -13 -22 -24 -22 -83 0 -106 -15 -101 318 -101 327 0
312 -5 312 96 0 108 11 104 -313 104 -230 0 -276 -2 -295 -16z"/>
<path d="M949 3287 c-34 -29 -41 -49 -28 -87 30 -85 159 -60 159 31 0 70 -77
103 -131 56z m93 -14 c41 -37 10 -103 -48 -103 -27 0 -36 6 -49 30 -12 22 -13
35 -5 50 21 40 71 52 102 23z"/>
<path d="M5522 2970 c-30 -18 -102 -116 -102 -139 0 -28 -21 -14 -58 39 -26
36 -60 70 -88 86 -41 24 -49 26 -84 15 -74 -22 -114 -112 -75 -168 9 -13 44
-44 78 -69 34 -26 64 -49 66 -51 2 -1 -15 -22 -38 -45 -66 -67 -95 -122 -96
-186 0 -49 3 -56 37 -88 30 -27 46 -34 77 -34 34 0 44 6 76 43 20 23 50 70 66
105 17 34 33 62 37 62 4 0 19 -19 34 -43 88 -137 174 -173 244 -103 61 61 43
123 -59 207 -34 28 -66 55 -71 60 -6 5 11 28 39 56 65 65 85 100 85 149 0 47
-25 86 -70 109 -38 20 -59 19 -98 -5z m119 -39 c19 -19 29 -40 29 -58 0 -39
-47 -112 -103 -158 -25 -21 -43 -44 -40 -51 2 -7 36 -37 75 -66 112 -86 130
-133 71 -192 -23 -23 -34 -27 -62 -22 -43 7 -99 60 -148 139 -20 32 -41 56
-47 54 -6 -2 -31 -41 -56 -87 -78 -142 -116 -167 -179 -114 -64 53 -47 133 51
239 30 33 53 65 51 72 -3 7 -28 29 -56 49 -88 63 -107 84 -107 120 0 20 10 44
26 63 21 25 33 31 65 31 34 0 47 -7 87 -47 27 -27 59 -67 72 -90 13 -24 28
-43 34 -43 6 0 22 25 34 55 13 29 41 72 61 94 49 53 97 57 142 12z"/>
<path d="M5355 2701 c-6 -11 9 -23 19 -14 9 9 7 23 -3 23 -6 0 -12 -4 -16 -9z"/>
<path d="M5442 2699 c2 -6 8 -10 13 -10 5 0 11 4 13 10 2 6 -4 11 -13 11 -9 0
-15 -5 -13 -11z"/>
<path d="M911 2896 c-19 -23 -24 -81 -10 -122 17 -52 19 -71 13 -124 l-5 -45
-85 -1 c-47 -1 -90 -6 -96 -12 -17 -17 -22 -108 -8 -142 12 -29 13 -29 104
-32 l91 -3 -4 -83 c-4 -106 1 -112 89 -112 103 0 100 -3 100 106 l0 94 88 0
c55 0 92 4 100 12 16 16 16 140 0 156 -8 8 -45 12 -101 12 l-89 0 4 94 c3 70
1 89 -7 73 -5 -11 -15 -22 -21 -24 -16 -5 -44 25 -44 48 0 10 -7 19 -15 19 -8
0 -15 8 -16 18 0 9 -7 -5 -15 -31 -16 -52 -37 -68 -61 -45 -36 37 -20 143 22
143 11 0 25 -11 32 -25 8 -16 13 -19 13 -9 0 20 -31 49 -52 49 -9 0 -21 -6
-27 -14z m122 -137 c13 -23 23 -30 37 -26 19 5 20 0 20 -69 l0 -74 94 0 c106
0 106 0 106 -80 0 -80 0 -80 -106 -80 l-93 0 -3 -97 -3 -98 -75 0 -75 0 -3 98
-3 97 -84 0 c-116 0 -115 -1 -115 80 0 81 -1 80 116 80 l84 0 0 70 c0 56 3 70
15 70 9 0 24 13 33 30 22 38 33 38 55 -1z"/>
<path d="M1047 2654 c-22 -29 -50 -31 -77 -4 -11 11 -20 16 -20 10 0 -19 41
-51 62 -48 20 3 66 53 57 62 -2 2 -12 -7 -22 -20z"/>
<path d="M1031 2886 c-8 -13 -11 -30 -8 -38 3 -7 6 -4 6 8 1 28 26 48 51 41
11 -3 18 -1 14 4 -11 18 -51 9 -63 -15z"/>
<path d="M943 2847 c4 -11 1 -17 -9 -17 -12 0 -13 -4 -4 -20 6 -11 15 -18 21
-15 13 9 11 52 -3 61 -8 5 -9 2 -5 -9z"/>
<path d="M1067 2838 c4 -19 3 -20 -6 -8 -9 13 -11 11 -11 -7 0 -12 4 -24 9
-28 13 -8 29 24 24 46 -7 27 -22 23 -16 -3z"/>
<path d="M1111 2834 c0 -11 3 -14 6 -6 3 7 2 16 -1 19 -3 4 -6 -2 -5 -13z"/>
<path d="M4866 2199 c-22 -32 -20 -59 7 -92 l23 -27 22 45 c14 29 18 46 11 51
-6 3 -16 1 -22 -5 -17 -17 -29 -13 -18 7 5 10 6 24 2 31 -6 10 -12 7 -25 -10z"/>
<path d="M1430 2142 c0 -31 32 -68 49 -57 15 9 14 58 -1 73 -23 23 -48 14 -48
-16z"/>
<path d="M4940 2100 c-12 -17 -20 -36 -17 -43 7 -18 207 -282 216 -285 4 -1
20 16 35 38 23 34 25 43 14 58 -49 66 -212 262 -218 262 -5 0 -18 -14 -30 -30z"/>
<path d="M1311 2086 c-36 -20 -71 -85 -71 -131 0 -52 27 -110 91 -196 29 -38
53 -69 55 -69 5 0 154 219 154 226 0 4 -25 40 -55 80 -73 97 -118 121 -174 90z
m106 -108 c13 -12 23 -26 23 -32 0 -16 -64 -106 -75 -106 -16 0 -45 54 -45 83
0 30 35 77 58 77 8 0 26 -10 39 -22z"/>
<path d="M1503 2083 c-29 -11 -6 -83 27 -83 26 0 35 36 16 65 -17 25 -21 27
-43 18z"/>
<path d="M1541 1790 c-56 -83 -101 -156 -101 -163 0 -16 225 -247 325 -333
224 -194 297 -233 344 -183 16 18 127 320 118 324 -1 1 -15 9 -31 19 -15 10
-32 14 -36 9 -4 -4 -26 -60 -49 -123 -65 -180 -60 -172 -96 -145 -18 14 -18
18 -6 48 8 17 16 58 19 91 6 83 -15 123 -104 196 -40 33 -75 60 -77 60 -3 0
-10 -15 -16 -32 -11 -31 -10 -35 21 -62 18 -16 50 -44 71 -62 25 -22 37 -41
37 -59 0 -37 -38 -107 -53 -99 -25 15 -144 114 -180 151 l-37 39 45 84 c25 46
45 86 45 90 0 3 -14 19 -30 35 -35 34 -29 39 -87 -65 -20 -36 -38 -67 -40 -69
-6 -7 -73 62 -73 75 0 7 34 67 75 133 41 67 75 125 75 129 0 5 -13 21 -29 36
l-29 28 -101 -152z"/>
<path d="M4796 1920 c-3 -8 -14 -51 -25 -95 -12 -44 -29 -108 -40 -143 -18
-59 -19 -65 -3 -92 9 -17 20 -30 23 -30 4 0 42 38 84 85 84 92 111 104 135 60
16 -29 6 -44 -121 -178 -97 -104 -80 -110 -171 66 -33 64 -64 117 -67 117 -3
-1 -19 -12 -36 -25 l-29 -24 89 -175 c48 -97 91 -176 94 -176 20 0 361 367
361 388 0 4 -12 25 -27 47 -68 102 -112 111 -192 39 -28 -25 -51 -42 -51 -37
0 6 7 32 15 59 19 63 19 64 -9 99 -19 23 -26 26 -30 15z"/>
<path d="M1490 1440 c0 -32 34 -72 55 -63 39 14 13 93 -30 93 -21 0 -25 -5
-25 -30z"/>
<path d="M4433 1429 c-30 -9 -33 -13 -33 -49 l0 -40 55 0 c46 0 60 -4 80 -25
14 -13 25 -31 25 -39 0 -8 -29 -36 -65 -62 -36 -26 -65 -51 -65 -55 0 -16 24
-59 32 -59 12 0 208 150 208 159 0 11 -34 75 -59 110 -25 34 -91 71 -126 70
-11 0 -35 -5 -52 -10z"/>
<path d="M1577 1383 c-13 -13 -7 -51 12 -74 16 -20 23 -22 38 -13 25 15 28 40
9 69 -16 24 -45 33 -59 18z"/>
<path d="M2275 1378 c-24 -65 -108 -337 -109 -352 -1 -18 59 -65 69 -54 4 4
43 135 96 318 18 65 18 65 -2 83 -25 20 -48 22 -54 5z"/>
<path d="M4249 1311 l-24 -19 33 -99 c17 -54 32 -102 32 -105 0 -8 -59 -44
-86 -52 -18 -6 -23 0 -34 39 -28 102 -131 139 -202 73 -47 -43 -62 -94 -54
-174 6 -56 4 -64 -13 -74 -11 -5 -30 -10 -44 -10 -22 0 -25 6 -42 100 l-18
101 -31 -7 c-17 -3 -34 -9 -37 -13 -4 -3 -1 -42 7 -86 23 -137 28 -127 -77
-148 -50 -10 -93 -16 -95 -14 -3 2 -10 54 -16 115 l-12 110 -55 -5 c-31 -3
-72 -11 -91 -17 -93 -30 -121 -197 -45 -273 30 -30 39 -33 92 -33 112 0 417
68 507 112 21 11 48 17 60 14 34 -8 91 11 126 44 17 16 68 49 112 72 137 73
149 106 93 263 -21 58 -43 105 -50 105 -7 0 -23 -9 -36 -19z m-169 -243 c38
-63 18 -138 -37 -138 -41 0 -69 101 -43 151 17 31 57 24 80 -13z m-610 -188
c0 -79 0 -80 -25 -80 -38 0 -65 33 -65 80 0 47 27 80 65 80 25 0 25 -1 25 -80z"/>
<path d="M3022 1138 c-25 -25 -7 -68 29 -68 29 0 44 27 31 55 -12 27 -40 33
-60 13z"/>
<path d="M3340 1125 c-26 -31 13 -82 44 -56 19 16 21 42 4 59 -16 16 -33 15
-48 -3z"/>
<path d="M3415 1120 c-8 -27 12 -52 39 -48 16 2 21 10 21 33 0 25 -4 31 -27
33 -19 2 -28 -2 -33 -18z"/>
<path d="M2536 988 c-16 -79 -33 -148 -38 -155 -6 -7 -19 -9 -37 -3 -25 7 -29
5 -39 -24 -16 -43 -16 -43 19 -55 49 -17 85 -13 114 12 22 19 29 41 50 152 13
72 27 144 31 161 5 29 3 32 -27 43 -17 6 -35 11 -39 11 -3 0 -19 -64 -34 -142z"/>
<path d="M2755 1071 c-67 -28 -104 -145 -71 -225 16 -38 67 -80 109 -90 15 -4
25 -11 22 -16 -8 -13 -51 -13 -77 1 -25 13 -38 -1 -38 -42 0 -32 35 -50 97
-51 48 0 79 18 96 55 11 27 15 29 58 24 65 -8 83 -1 107 41 16 30 21 60 23
152 l4 115 -36 3 -36 3 -7 -62 c-3 -34 -6 -80 -6 -103 0 -59 -10 -69 -55 -60
l-37 7 6 46 c3 25 8 76 12 113 l7 67 -29 6 c-16 4 -45 11 -64 16 -42 11 -58
11 -85 0z m82 -79 c9 -6 10 -24 3 -72 -5 -36 -10 -68 -10 -72 0 -16 -41 -7
-61 13 -17 17 -20 30 -16 65 2 24 10 51 17 59 13 16 47 20 67 7z"/>
<path d="M4329 956 c-23 -50 19 -77 55 -37 25 27 17 55 -17 59 -21 3 -29 -2
-38 -22z"/>
<path d="M4257 922 c-28 -31 -17 -72 18 -72 7 0 45 43 45 51 0 10 -29 39 -39
39 -4 0 -15 -8 -24 -18z"/>
<path d="M3821 746 c-20 -23 -10 -60 17 -64 32 -5 54 16 50 47 -2 20 -9 27
-29 29 -14 2 -31 -4 -38 -12z"/>
<path d="M3743 729 c-17 -6 -23 -16 -23 -39 0 -36 20 -48 56 -32 50 23 18 91
-33 71z"/>
</g>
</svg>
